<svg width="123" height="49" viewBox="0 0 123 49" fill="none" xmlns="http://www.w3.org/2000/svg">
<g id="Group">
<path id="Vector" d="M26.7329 9.52006C27.0183 9.83952 27.1653 10.2587 27.1419 10.686C27.1471 11.0703 27.0809 11.4522 26.9467 11.8124L21.1835 29.064C21.049 29.4328 20.8042 29.7516 20.4822 29.977C20.156 30.2197 19.7594 30.3493 19.3526 30.3463C18.9274 30.3517 18.5115 30.2224 18.1646 29.977C17.8366 29.7624 17.5951 29.439 17.4827 29.064L13.6671 14.963L9.65635 29.064C9.5193 29.4367 9.26725 29.7564 8.93651 29.977C8.60191 30.2169 8.2003 30.346 7.7883 30.346C7.37629 30.346 6.97468 30.2169 6.64008 29.977C6.30827 29.7569 6.05524 29.4371 5.91759 29.064L0.155336 11.8124C0.0491315 11.4594 -0.00327122 11.0925 -0.000114079 10.7239C-0.0318529 10.5023 -0.0114459 10.2764 0.0594907 10.064C0.130427 9.85168 0.249945 9.65871 0.408577 9.50042C0.567209 9.34214 0.760598 9.22288 0.973428 9.1521C1.18626 9.08132 1.41268 9.06096 1.63476 9.09263C2.08293 9.07668 2.52077 9.22923 2.86158 9.52006C3.2402 9.89694 3.51413 10.3656 3.6565 10.8799L7.86602 23.9744L11.8353 10.5679C11.9498 10.1513 12.1874 9.77883 12.5172 9.49891C12.876 9.21509 13.3254 9.07018 13.7828 9.09086C14.2298 9.07371 14.6677 9.21937 15.015 9.50067C15.3443 9.78078 15.5816 10.1533 15.6959 10.5697L19.2006 24.2468L23.4844 10.8799C23.8477 9.68839 24.5228 9.09263 25.5096 9.09263C25.7326 9.07551 25.9567 9.10465 26.1679 9.17822C26.379 9.25178 26.5726 9.36817 26.7364 9.52006" fill="#55B848"/>
<path id="Vector_2" d="M50.3858 20.6134C50.2146 20.7753 50.0128 20.9016 49.7922 20.985C49.5716 21.0684 49.3365 21.1071 49.1007 21.099H34.3109C34.546 22.823 35.4303 24.393 36.784 25.4897C37.8218 26.2986 39.0458 26.8361 40.3447 27.0533C41.6436 27.2704 42.9763 27.1604 44.2217 26.7332C44.9684 26.498 45.672 26.1438 46.3053 25.6844C46.6715 25.3985 47.1255 25.2475 47.5904 25.257C48.0152 25.2341 48.4329 25.373 48.7589 25.6457C48.9692 25.798 49.1417 25.9963 49.2633 26.2255C49.3848 26.4546 49.4522 26.7085 49.4602 26.9676C49.4597 27.198 49.4025 27.4248 49.2938 27.628C49.1851 27.8313 49.0281 28.0049 48.8366 28.1336C47.8473 28.889 46.7341 29.4675 45.5466 29.8433C44.0014 30.3807 42.3618 30.5942 40.7302 30.4704C39.0986 30.3467 37.5101 29.8884 36.0641 29.1242C34.4144 28.2415 33.0453 26.9156 32.1116 25.2967C31.149 23.606 30.6583 21.6886 30.6905 19.7444C30.6588 17.8023 31.121 15.8839 32.0339 14.1684C32.8931 12.561 34.1889 11.2278 35.7726 10.3214C37.426 9.38586 39.2997 8.90788 41.2002 8.9369C43.0161 8.88978 44.8093 9.34749 46.3795 10.2589C47.8318 11.1381 48.9957 12.4207 49.7287 13.9498C50.5338 15.6489 50.9338 17.511 50.8973 19.3901C50.9035 19.6182 50.8617 19.845 50.7745 20.0558C50.6873 20.2667 50.5567 20.457 50.3912 20.6143M36.5861 13.8335C35.3782 14.9177 34.5865 16.388 34.3471 17.9915H47.3148C47.162 16.4247 46.4763 14.9574 45.3717 13.8335C44.816 13.3089 44.1605 12.9011 43.4439 12.634C42.7274 12.367 41.9644 12.2462 41.2002 12.2788C39.5214 12.204 37.8753 12.7582 36.5852 13.8326" fill="#55B848"/>
<path id="Vector_3" d="M58.5922 29.6856C57.2263 29.2549 55.975 28.5229 54.9312 27.544C54.7688 27.3884 54.6401 27.2012 54.553 26.9939C54.466 26.7867 54.4224 26.5639 54.4251 26.3392C54.4201 26.0422 54.4886 25.7484 54.6245 25.4841C54.7604 25.2197 54.9594 24.9928 55.2041 24.8234C55.5889 24.5022 56.0663 24.3117 56.5669 24.2796C56.8481 24.2905 57.1241 24.3582 57.3784 24.4784C57.6327 24.5987 57.8599 24.7691 58.0463 24.9794C58.672 25.6106 59.4305 26.0953 60.2668 26.3983C61.2685 26.803 62.3402 27.0075 63.4209 27.0002C64.6146 27.0654 65.804 26.8104 66.8655 26.2617C67.2328 26.0759 67.5416 25.7927 67.7581 25.4432C67.9745 25.0937 68.0902 24.6914 68.0923 24.2805C68.0838 23.8707 67.9679 23.4703 67.7561 23.1192C67.5442 22.768 67.2439 22.4783 66.8849 22.279C65.6163 21.5897 64.2323 21.1369 62.8008 20.943C57.8164 19.9853 55.3242 17.9389 55.3242 14.8038C55.291 13.6268 55.6927 12.4787 56.453 11.5782C57.2475 10.669 58.2685 9.98529 59.4127 9.5961C60.6622 9.15063 61.9801 8.92693 63.3069 8.93512C64.8581 8.91037 66.3993 9.18757 67.8441 9.75121C69.0769 10.2211 70.1691 10.9971 71.0176 12.0056C71.3266 12.3485 71.5056 12.7884 71.5237 13.2491C71.513 13.4871 71.4477 13.7195 71.3329 13.9284C71.218 14.1372 71.0567 14.317 70.8613 14.4539C70.5409 14.6717 70.1587 14.7807 69.7713 14.765C69.0887 14.7622 68.4332 14.4978 67.9404 14.0264C67.3486 13.4658 66.6454 13.0355 65.8763 12.7635C65.0188 12.4984 64.124 12.3737 63.2266 12.3943C62.2122 12.3556 61.2034 12.5621 60.2862 12.9962C59.9503 13.1352 59.6624 13.3693 59.4584 13.6697C59.2543 13.9702 59.143 14.3237 59.138 14.6865C59.1218 15.1513 59.2586 15.6085 59.5275 15.9882C59.9281 16.4344 60.4383 16.7685 61.0078 16.9577C62.0316 17.3404 63.087 17.6329 64.1619 17.8319C66.9883 18.4024 68.9935 19.1927 70.1777 20.2027C70.7512 20.6805 71.2086 21.282 71.5155 21.9617C71.8224 22.6415 71.9708 23.3819 71.9494 24.1271C71.9607 25.2818 71.6221 26.4129 70.9779 27.3721C70.2647 28.395 69.2707 29.1907 68.1153 29.6635C66.678 30.2542 65.1328 30.5385 63.579 30.4981C61.8833 30.5096 60.1979 30.2337 58.5948 29.6821" fill="black"/>
<path id="Vector_4" d="M96.4036 20.612C96.2323 20.7739 96.0305 20.9003 95.8099 20.9836C95.5893 21.067 95.3542 21.1057 95.1185 21.0976H80.3207C80.5557 22.8216 81.44 24.3916 82.7937 25.4883C83.8316 26.2973 85.0556 26.8347 86.3545 27.0519C87.6534 27.269 88.986 27.159 90.2315 26.7318C90.9781 26.4966 91.6817 26.1424 92.3151 25.6831C92.6813 25.3971 93.1352 25.2461 93.6002 25.2556C94.025 25.2327 94.4426 25.3716 94.7687 25.6443C94.979 25.7966 95.1515 25.9949 95.2731 26.2241C95.3946 26.4532 95.462 26.7071 95.47 26.9662C95.4694 27.1966 95.4123 27.4234 95.3036 27.6266C95.1949 27.8299 95.0379 28.0035 94.8464 28.1322C93.857 28.8876 92.7439 29.4661 91.5564 29.842C90.0112 30.3793 88.3716 30.5928 86.74 30.469C85.1084 30.3453 83.5199 29.887 82.0739 29.1228C80.4242 28.24 79.0551 26.9142 78.1214 25.2953C77.1588 23.6046 76.668 21.6873 76.7003 19.743C76.6686 17.8009 77.1308 15.8825 78.0437 14.167C78.9029 12.5596 80.1987 11.2264 81.7824 10.3201C83.4375 9.38556 85.3129 8.90939 87.2144 8.9408C89.0303 8.89369 90.8235 9.35139 92.3937 10.2628C93.846 11.142 95.0099 12.4246 95.7429 13.9537C96.548 15.6529 96.9479 17.5149 96.9114 19.394C96.9177 19.6221 96.8759 19.8489 96.7887 20.0597C96.7015 20.2706 96.5709 20.4609 96.4053 20.6182M82.6003 13.8374C81.3924 14.9216 80.6007 16.3919 80.3613 17.9954H93.329C93.1762 16.4286 92.4905 14.9613 91.3859 13.8374C90.8307 13.3135 90.1758 12.9062 89.4601 12.6393C88.7443 12.3724 87.9822 12.2515 87.2188 12.2836C85.54 12.2087 83.8939 12.763 82.6038 13.8374" fill="black"/>
<path id="Vector_5" d="M104.796 29.4352C103.873 28.7937 103.15 27.9046 102.712 26.8706C102.204 25.7003 101.952 24.4355 101.972 23.1603V1.93835C101.963 1.68048 102.006 1.42341 102.1 1.18291C102.193 0.942402 102.335 0.72353 102.517 0.539711C102.789 0.257822 103.141 0.064635 103.525 -0.0145442C103.91 -0.0937235 104.309 -0.0552027 104.671 0.0959722C105.033 0.247147 105.341 0.503927 105.555 0.832675C105.768 1.16142 105.877 1.54681 105.867 1.93835V23.1577C105.835 23.9819 106.023 24.7998 106.412 25.5275C106.536 25.7974 106.733 26.0275 106.98 26.1921C107.228 26.3568 107.516 26.4495 107.814 26.4599H108.785C109.023 26.4522 109.26 26.4968 109.479 26.5908C109.698 26.6848 109.893 26.8258 110.051 27.0037C110.384 27.392 110.558 27.8916 110.538 28.4024C110.54 28.6784 110.474 28.9507 110.344 29.1949C110.215 29.439 110.027 29.6473 109.797 29.801C109.237 30.1838 108.568 30.3747 107.89 30.3448H107.811C106.735 30.3571 105.681 30.0383 104.793 29.4317" fill="black"/>
<path id="Vector_6" d="M117.255 29.4352C116.332 28.7937 115.61 27.9046 115.172 26.8706C114.664 25.7003 114.412 24.4355 114.431 23.1603V1.93835C114.422 1.68047 114.465 1.42339 114.559 1.18288C114.653 0.942366 114.795 0.7235 114.976 0.539711C115.249 0.257822 115.6 0.064635 115.985 -0.0145442C116.369 -0.0937235 116.769 -0.0552027 117.131 0.0959722C117.493 0.247147 117.801 0.503927 118.014 0.832675C118.228 1.16142 118.336 1.54681 118.327 1.93835V23.1577C118.294 23.9819 118.482 24.7998 118.871 25.5275C118.995 25.7974 119.192 26.0275 119.44 26.1921C119.687 26.3568 119.976 26.4495 120.273 26.4599H121.245C121.483 26.4522 121.72 26.4968 121.938 26.5908C122.157 26.6848 122.352 26.8258 122.51 27.0037C122.844 27.392 123.017 27.8916 122.997 28.4024C122.999 28.6784 122.933 28.9507 122.804 29.1949C122.675 29.439 122.487 29.6473 122.257 29.801C121.697 30.1838 121.027 30.3747 120.349 30.3448H120.271C119.194 30.3571 118.141 30.0383 117.252 29.4317" fill="black"/>
<path id="Vector_7" d="M2.67003 46.7233H2.09858V44.3129L0 41.127H0.712775L2.38475 43.7709L4.05672 41.127H4.7695L2.67003 44.3129V46.7233Z" fill="black"/>
<path id="Vector_8" d="M9.7367 44.8739C9.73943 45.1392 9.68961 45.4025 9.59008 45.6486C9.49668 45.8793 9.35794 46.0891 9.18203 46.2655C9.0056 46.4415 8.79528 46.58 8.56376 46.6726C8.05349 46.8668 7.48949 46.8668 6.97922 46.6726C6.74676 46.5808 6.53553 46.4427 6.35845 46.2666C6.18136 46.0905 6.04216 45.8802 5.94937 45.6486C5.75386 45.1505 5.75386 44.5972 5.94937 44.0992C6.04204 43.8676 6.1812 43.6574 6.35831 43.4814C6.53541 43.3055 6.74671 43.1675 6.97922 43.076C7.4893 42.8809 8.05368 42.8809 8.56376 43.076C8.79614 43.1677 9.00732 43.3057 9.1844 43.4817C9.36148 43.6576 9.50072 43.8677 9.59362 44.0992C9.69309 44.3453 9.74292 44.6086 9.74023 44.8739M9.16966 44.8739C9.17104 44.6772 9.13755 44.4817 9.07074 44.2966C9.00866 44.1241 8.91323 43.9654 8.78987 43.8295C8.66574 43.6963 8.5154 43.5901 8.34825 43.5176C7.97508 43.3644 7.55642 43.3644 7.18325 43.5176C7.01761 43.5896 6.86919 43.696 6.74782 43.8295C6.62633 43.9661 6.53219 44.1247 6.47048 44.2966C6.3382 44.6698 6.3382 45.0771 6.47048 45.4503C6.53203 45.622 6.6262 45.7803 6.74782 45.9165C6.86914 46.0503 7.01756 46.157 7.18325 46.2294C7.55663 46.3814 7.97487 46.3814 8.34825 46.2294C8.51548 46.1565 8.66582 46.05 8.78987 45.9165C8.91335 45.7811 9.0088 45.6226 9.07074 45.4503C9.13744 45.2651 9.17093 45.0697 9.16966 44.873" fill="black"/>
<path id="Vector_9" d="M14.8624 46.7226C14.8509 46.623 14.8447 46.5234 14.8421 46.4265C14.8394 46.3295 14.8421 46.23 14.8421 46.1304H14.8261C14.7659 46.2327 14.6912 46.3259 14.6045 46.4071C14.5139 46.4917 14.413 46.5645 14.3042 46.6239C14.1923 46.6849 14.0737 46.7328 13.9509 46.7667C13.831 46.8003 13.7071 46.8175 13.5825 46.8178C13.3902 46.8339 13.1967 46.8087 13.015 46.7439C12.8332 46.6791 12.6675 46.5763 12.5288 46.4424C12.2841 46.1407 12.1624 45.758 12.1879 45.3707V43.0229H12.7108V45.0701C12.7086 45.2531 12.7243 45.4358 12.7576 45.6157C12.783 45.7587 12.8384 45.8947 12.9201 46.0149C12.9983 46.1237 13.1054 46.2086 13.2293 46.2599C13.3846 46.3196 13.5504 46.3478 13.7168 46.3428C13.7912 46.3362 13.8652 46.3257 13.9385 46.311C14.0781 46.2815 14.2094 46.2213 14.3227 46.1348C14.4735 46.0215 14.5967 45.8757 14.6831 45.7082C14.8018 45.4613 14.8565 45.1885 14.8421 44.915V43.0176H15.3649V45.903C15.3649 46.0026 15.3693 46.1295 15.3764 46.2828C15.3835 46.4362 15.3941 46.5798 15.4047 46.7173L14.8624 46.7226Z" fill="black"/>
<path id="Vector_10" d="M21.772 43.0241H22.2948V43.641H22.3107C22.3929 43.5174 22.4946 43.4079 22.6119 43.3167C22.7249 43.2296 22.8472 43.1554 22.9767 43.0955C23.1021 43.0384 23.2337 42.9961 23.3689 42.9695C23.4954 42.9441 23.624 42.9308 23.7531 42.9298C24.0251 42.9266 24.2951 42.9763 24.548 43.0761C24.7804 43.1678 24.9916 43.3059 25.1686 43.4818C25.3457 43.6577 25.485 43.8679 25.5779 44.0993C25.7734 44.5974 25.7734 45.1506 25.5779 45.6487C25.4844 45.8794 25.3457 46.0892 25.1698 46.2656C24.9934 46.4416 24.783 46.5801 24.5515 46.6728C24.2984 46.772 24.0285 46.8213 23.7566 46.8182C23.6276 46.8175 23.4989 46.8045 23.3724 46.7794C23.2371 46.7529 23.1054 46.7103 22.9802 46.6525C22.8505 46.5931 22.728 46.5189 22.6155 46.4313C22.4978 46.3405 22.3961 46.2309 22.3143 46.107H22.2984V49.0003H21.7755L21.772 43.0241ZM25.1548 44.8749C25.1562 44.6781 25.1227 44.4827 25.0559 44.2976C24.9938 44.1251 24.8984 43.9664 24.775 43.8305C24.6509 43.6973 24.5005 43.5911 24.3334 43.5186C24.1494 43.4396 23.9507 43.4005 23.7504 43.404C23.5465 43.4014 23.3443 43.4403 23.156 43.5186C22.9814 43.5913 22.8227 43.6972 22.6888 43.8305C22.5555 43.964 22.4504 44.1229 22.3796 44.2976C22.2313 44.6679 22.2313 45.081 22.3796 45.4513C22.4501 45.6259 22.5553 45.7845 22.6888 45.9175C22.8227 46.051 22.9814 46.1573 23.156 46.2303C23.3444 46.3079 23.5466 46.3466 23.7504 46.344C23.9506 46.3474 24.1492 46.3087 24.3334 46.2303C24.5006 46.1575 24.6509 46.051 24.775 45.9175C24.8985 45.7821 24.9939 45.6236 25.0559 45.4513C25.1226 45.2661 25.156 45.0707 25.1548 44.874" fill="black"/>
<path id="Vector_11" d="M28.1407 44.1789C28.1407 44.0156 28.1369 43.8496 28.1292 43.681C28.1213 43.5117 28.1142 43.2941 28.1089 43.0244H28.6238V43.7127H28.6397C28.6785 43.6092 28.732 43.5118 28.7987 43.4236C28.8697 43.3293 28.9539 43.2456 29.0487 43.1751C29.1521 43.0985 29.2672 43.039 29.3896 42.9988C29.532 42.9522 29.6813 42.9295 29.8312 42.9318C29.9623 42.9297 30.093 42.9454 30.2198 42.9786L30.1165 43.4924C30.0192 43.4619 29.9172 43.4485 29.8153 43.4527C29.6371 43.4476 29.4604 43.487 29.3013 43.5673C29.165 43.6401 29.0448 43.7396 28.948 43.8599C28.8554 43.974 28.7842 44.1039 28.7378 44.2432C28.6944 44.3707 28.6717 44.5043 28.6706 44.6389V46.7259H28.1469L28.1407 44.1789Z" fill="black"/>
<path id="Vector_12" d="M35.8187 44.8739C35.8215 45.1392 35.7716 45.4025 35.6721 45.6486C35.5787 45.8793 35.44 46.0891 35.2641 46.2655C35.0876 46.4415 34.8773 46.58 34.6458 46.6726C34.1355 46.8668 33.5715 46.8668 33.0613 46.6726C32.8288 46.5808 32.6176 46.4427 32.4405 46.2666C32.2634 46.0905 32.1242 45.8802 32.0314 45.6486C31.8359 45.1505 31.8359 44.5972 32.0314 44.0992C32.1241 43.8676 32.2632 43.6574 32.4403 43.4814C32.6174 43.3055 32.8287 43.1675 33.0613 43.076C33.5713 42.8809 34.1357 42.8809 34.6458 43.076C34.8782 43.1677 35.0894 43.3057 35.2664 43.4817C35.4435 43.6576 35.5828 43.8677 35.6757 44.0992C35.7751 44.3453 35.825 44.6086 35.8223 44.8739M35.2517 44.8739C35.253 44.6772 35.2195 44.4818 35.1528 44.2966C35.0907 44.1241 34.9953 43.9654 34.8719 43.8295C34.7478 43.6963 34.5974 43.5901 34.4303 43.5176C34.0571 43.3644 33.6385 43.3644 33.2653 43.5176C33.0997 43.5897 32.9513 43.696 32.8299 43.8295C32.7084 43.9661 32.6142 44.1247 32.5525 44.2966C32.4202 44.6698 32.4202 45.0771 32.5525 45.4503C32.6141 45.622 32.7082 45.7803 32.8299 45.9165C32.9512 46.0503 33.0996 46.1569 33.2653 46.2294C33.6387 46.3814 34.0569 46.3814 34.4303 46.2294C34.5975 46.1565 34.7479 46.05 34.8719 45.9165C34.9954 45.7811 35.0908 45.6226 35.1528 45.4503C35.2195 45.2651 35.253 45.0697 35.2517 44.873" fill="black"/>
<path id="Vector_13" d="M39.8985 46.723H39.3121L37.8105 43.0215H38.4288L39.6177 46.136H39.6336L40.8136 43.0215H41.408L39.8985 46.723Z" fill="black"/>
<path id="Vector_14" d="M44.3334 41.6007C44.3347 41.652 44.3248 41.7029 44.3044 41.7499C44.2839 41.797 44.2535 41.839 44.2151 41.8731C44.1455 41.9417 44.0515 41.9803 43.9536 41.9803C43.8557 41.9803 43.7618 41.9417 43.6922 41.8731C43.6547 41.8382 43.6247 41.796 43.6043 41.749C43.5838 41.7021 43.5732 41.6515 43.5732 41.6003C43.5732 41.5491 43.5838 41.4985 43.6043 41.4516C43.6247 41.4046 43.6547 41.3624 43.6922 41.3275C43.7619 41.2591 43.8558 41.2207 43.9536 41.2207C44.0514 41.2207 44.1453 41.2591 44.2151 41.3275C44.2536 41.3617 44.2841 41.4039 44.3046 41.4511C44.325 41.4983 44.3349 41.5494 44.3334 41.6007ZM44.2151 46.7238H43.6922V43.0223H44.2151V46.7238Z" fill="black"/>
<path id="Vector_15" d="M50.6653 46.7242H50.1415V46.1073H50.1257C50.0439 46.2313 49.9421 46.3408 49.8245 46.4316C49.7119 46.5192 49.5895 46.5935 49.4597 46.6528C49.3346 46.7107 49.2029 46.7533 49.0675 46.7797C48.941 46.8049 48.8123 46.8179 48.6833 46.8185C48.4114 46.8217 48.1415 46.7723 47.8884 46.6731C47.6561 46.5811 47.445 46.4428 47.2679 46.2668C47.0908 46.0907 46.9516 45.8805 46.8585 45.649C46.663 45.151 46.663 44.5977 46.8585 44.0997C46.9514 43.8682 47.0907 43.6581 47.2678 43.4821C47.4448 43.3062 47.656 43.1682 47.8884 43.0765C48.1413 42.9766 48.4113 42.9269 48.6833 42.9302C48.8124 42.9311 48.941 42.9444 49.0675 42.9698C49.2028 42.9963 49.3344 43.0386 49.4597 43.0959C49.5892 43.1558 49.7115 43.23 49.8245 43.3171C49.9418 43.4082 50.0435 43.5178 50.1257 43.6414H50.1415V40.748H50.6653V46.7242ZM47.2816 44.8735C47.28 45.0702 47.3135 45.2657 47.3805 45.4507C47.4419 45.6234 47.5374 45.7819 47.6614 45.9169C47.7853 46.0506 47.9357 46.1571 48.103 46.2298C48.2872 46.308 48.4858 46.3468 48.686 46.3435C48.8883 46.3452 49.0889 46.3065 49.276 46.2298C49.4521 46.1572 49.6123 46.0509 49.7476 45.9169C49.8806 45.7837 49.9854 45.6252 50.0559 45.4507C50.2042 45.0804 50.2042 44.6674 50.0559 44.2971C49.9853 44.1225 49.8805 43.9637 49.7476 43.83C49.6123 43.6963 49.4521 43.5903 49.276 43.518C49.089 43.4407 48.8884 43.4017 48.686 43.4034C48.4857 43.4 48.287 43.439 48.103 43.518C47.9358 43.5904 47.7854 43.6966 47.6614 43.83C47.5375 43.9655 47.4421 44.1243 47.3805 44.2971C47.3134 44.4821 47.2799 44.6776 47.2816 44.8744" fill="black"/>
<path id="Vector_16" d="M53.6363 45.0142C53.6511 45.1948 53.6965 45.3715 53.7706 45.5368C53.9102 45.8537 54.1653 46.1057 54.4842 46.2419C54.6465 46.3116 54.8216 46.3467 54.9983 46.345C55.2536 46.3518 55.5054 46.2847 55.7234 46.152C55.9096 46.0396 56.0681 45.8869 56.1871 45.7052L56.5908 46.0365C56.3983 46.2927 56.1468 46.4988 55.8577 46.6376C55.5878 46.7597 55.2946 46.8217 54.9983 46.8191C54.7365 46.8215 54.4769 46.772 54.2343 46.6737C54.0063 46.5812 53.8 46.4426 53.6284 46.2666C53.4567 46.0884 53.3208 45.879 53.2283 45.6497C53.1288 45.4036 53.0789 45.1403 53.0816 44.875C53.079 44.6101 53.1273 44.3471 53.2239 44.1003C53.3144 43.8708 53.4491 43.6612 53.6204 43.4834C53.7932 43.306 54.0002 43.1655 54.229 43.0703C54.4578 42.9752 54.7036 42.9274 54.9515 42.9299C55.2102 42.9257 55.4668 42.9768 55.704 43.0798C55.916 43.1729 56.1063 43.3088 56.2631 43.479C56.4161 43.649 56.5332 43.848 56.6075 44.0642C56.6874 44.294 56.7274 44.5357 56.7259 44.7789V45.016L53.6363 45.0142ZM56.1562 44.5877C56.1629 44.4309 56.1383 44.2744 56.0839 44.1272C56.0295 43.98 55.9463 43.845 55.8391 43.7302C55.7225 43.6177 55.5839 43.5305 55.4319 43.4741C55.2799 43.4176 55.1178 43.3932 54.9559 43.4023C54.7872 43.4023 54.6202 43.4362 54.4648 43.5019C54.3113 43.5643 54.1704 43.6539 54.0488 43.7663C53.9314 43.8743 53.8348 44.0027 53.7635 44.1453C53.6935 44.2817 53.6566 44.4326 53.6558 44.5859L56.1562 44.5877Z" fill="black"/>
<path id="Vector_17" d="M63.7381 41.6007C63.7393 41.6521 63.7292 41.703 63.7086 41.7501C63.6881 41.7971 63.6574 41.8391 63.6189 41.8731C63.5493 41.9417 63.4553 41.9803 63.3574 41.9803C63.2595 41.9803 63.1656 41.9417 63.096 41.8731C63.0585 41.8382 63.0285 41.796 63.0081 41.749C62.9876 41.7021 62.9771 41.6515 62.9771 41.6003C62.9771 41.5491 62.9876 41.4985 63.0081 41.4516C63.0285 41.4046 63.0585 41.3624 63.096 41.3275C63.1657 41.2591 63.2596 41.2207 63.3574 41.2207C63.4553 41.2207 63.5491 41.2591 63.6189 41.3275C63.6575 41.3616 63.6882 41.4038 63.7088 41.451C63.7294 41.4982 63.7394 41.5493 63.7381 41.6007ZM63.6189 46.7238H63.096V43.0223H63.6189V46.7238Z" fill="black"/>
<path id="Vector_18" d="M68.285 43.4981H67.2154V45.6802C67.2121 45.7935 67.2255 45.9066 67.2551 46.016C67.2748 46.0913 67.3127 46.1606 67.3655 46.2178C67.4126 46.2652 67.4714 46.2992 67.536 46.3165C67.6067 46.336 67.6799 46.3455 67.7533 46.3447C67.8471 46.3443 67.9403 46.3313 68.0306 46.3059C68.1224 46.2813 68.2113 46.2467 68.2956 46.2028L68.3186 46.6849C68.0956 46.7802 67.8544 46.8259 67.612 46.8189C67.5063 46.8184 67.401 46.8054 67.2984 46.7801C67.1894 46.7532 67.088 46.7019 67.0017 46.6303C66.906 46.5477 66.8302 46.4447 66.78 46.3289C66.7158 46.1709 66.6857 46.0012 66.6916 45.8309V43.4981H65.9082V43.0239H66.6934V41.9805H67.2163V43.0239H68.2859L68.285 43.4981Z" fill="black"/>
<path id="Vector_19" d="M71.4302 46.3422C71.4307 46.4525 71.3882 46.5587 71.3118 46.6383C71.2718 46.6798 71.2238 46.7128 71.1706 46.7353C71.1175 46.7579 71.0604 46.7695 71.0027 46.7695C70.945 46.7695 70.8879 46.7579 70.8347 46.7353C70.7816 46.7128 70.7336 46.6798 70.6935 46.6383C70.6172 46.5584 70.5747 46.4522 70.5747 46.3418C70.5747 46.2314 70.6172 46.1252 70.6935 46.0452C70.7336 46.0037 70.7816 45.9708 70.8347 45.9482C70.8879 45.9257 70.945 45.9141 71.0027 45.9141C71.0604 45.9141 71.1175 45.9257 71.1706 45.9482C71.2238 45.9708 71.2718 46.0037 71.3118 46.0452C71.3882 46.125 71.4306 46.2311 71.4302 46.3413" fill="black"/>
<path id="Vector_20" d="M79.3058 45.9169H79.3217L80.7349 41.127H81.4159L82.8291 45.9169H82.845L84.176 41.127H84.8102L83.1541 46.7242H82.4881L81.0749 41.9333H81.059L79.6459 46.7242H78.9808L77.3247 41.127H77.9589L79.3058 45.9169Z" fill="black"/>
<path id="Vector_21" d="M87.1412 45.0142C87.1559 45.1948 87.2013 45.3715 87.2755 45.5368C87.4151 45.8537 87.6702 46.1057 87.9891 46.2419C88.1514 46.3116 88.3265 46.3468 88.5031 46.345C88.7585 46.3518 89.0103 46.2847 89.2283 46.152C89.4145 46.0397 89.573 45.887 89.692 45.7052L90.0956 46.0365C89.9031 46.2927 89.6517 46.4988 89.3626 46.6376C89.0927 46.7597 88.7994 46.8217 88.5031 46.8191C88.2414 46.8215 87.9817 46.772 87.7392 46.6737C87.5112 46.5812 87.3049 46.4426 87.1332 46.2666C86.9615 46.0884 86.8257 45.879 86.7331 45.6497C86.6336 45.4036 86.5838 45.1403 86.5865 44.875C86.5839 44.6101 86.6321 44.3471 86.7287 44.1003C86.8192 43.8708 86.9539 43.6612 87.1253 43.4834C87.298 43.306 87.5051 43.1655 87.7339 43.0703C87.9627 42.9752 88.2085 42.9274 88.4564 42.9299C88.715 42.9257 88.9716 42.9768 89.2089 43.0798C89.4208 43.1729 89.6112 43.3088 89.768 43.479C89.921 43.649 90.0381 43.848 90.1124 44.0642C90.1923 44.294 90.2323 44.5357 90.2308 44.7789V45.016L87.1412 45.0142ZM89.6611 44.5877C89.6724 44.4277 89.6488 44.2671 89.592 44.1171C89.5352 43.967 89.4465 43.831 89.3321 43.7184C89.2176 43.6057 89.0801 43.5192 88.9289 43.4646C88.7778 43.4101 88.6165 43.3888 88.4564 43.4023C88.2876 43.4023 88.1206 43.4362 87.9653 43.5019C87.8118 43.5643 87.6708 43.6538 87.5493 43.7663C87.4319 43.8743 87.3352 44.0027 87.264 44.1453C87.194 44.2817 87.157 44.4326 87.1562 44.5859L89.6611 44.5877Z" fill="black"/>
<path id="Vector_22" d="M98.3202 43.9008C98.2472 43.7548 98.1385 43.6296 98.0041 43.5368C97.8601 43.4441 97.6912 43.3973 97.52 43.4028C97.4281 43.4032 97.3366 43.4138 97.2471 43.4346C97.1589 43.454 97.0745 43.4876 96.9971 43.5341C96.9263 43.5766 96.8659 43.6345 96.8205 43.7034C96.7732 43.7794 96.7496 43.8677 96.7525 43.9572C96.7468 44.0308 96.7606 44.1047 96.7927 44.1712C96.8248 44.2378 96.874 44.2947 96.9353 44.3361C97.1049 44.4344 97.2897 44.5038 97.4821 44.5415L98.012 44.6684C98.2576 44.7189 98.4825 44.8417 98.6576 45.0209C98.7426 45.1082 98.8092 45.2116 98.8535 45.3249C98.8978 45.4383 98.9189 45.5594 98.9155 45.681C98.9212 45.8525 98.883 46.0227 98.8047 46.1754C98.7264 46.3282 98.6104 46.4586 98.4677 46.5544C98.3272 46.6494 98.1703 46.7178 98.0049 46.7562C97.8314 46.7979 97.6535 46.8189 97.475 46.8188C97.2016 46.8208 96.9307 46.7655 96.6801 46.6566C96.42 46.5365 96.201 46.3429 96.0503 46.0996L96.5017 45.7912C96.6021 45.9545 96.739 46.0923 96.9017 46.1939C97.0749 46.2974 97.2741 46.3494 97.4759 46.3438C97.5825 46.3436 97.6889 46.3317 97.7929 46.3085C97.8921 46.2872 97.9869 46.2497 98.0738 46.1975C98.1539 46.1494 98.2216 46.0833 98.2717 46.0045C98.3229 45.9217 98.349 45.8259 98.3467 45.7286C98.3529 45.6494 98.3369 45.5701 98.3005 45.4995C98.2642 45.4289 98.209 45.3697 98.1409 45.3285C97.9849 45.2401 97.8168 45.1748 97.6419 45.1346L97.1349 45.0165C97.0719 45.0006 96.9862 44.9745 96.8779 44.9381C96.7646 44.8987 96.6578 44.8428 96.5608 44.7724C96.4545 44.6941 96.3645 44.5959 96.2958 44.4833C96.2182 44.3497 96.1799 44.197 96.1854 44.0427C96.1814 43.8697 96.2209 43.6985 96.3003 43.5447C96.3735 43.4057 96.4792 43.2863 96.6085 43.1966C96.7431 43.1047 96.8925 43.0365 97.0501 42.9948C97.2154 42.9501 97.3859 42.9276 97.5571 42.9278C97.8056 42.9256 98.0517 42.9767 98.2787 43.0776C98.5058 43.1828 98.6882 43.3649 98.7937 43.5914L98.3202 43.9008Z" fill="black"/>
<path id="Vector_23" d="M101.6 45.0142C101.614 45.1948 101.66 45.3715 101.734 45.5368C101.874 45.8537 102.129 46.1057 102.448 46.2419C102.61 46.3116 102.785 46.3468 102.962 46.345C103.217 46.3518 103.469 46.2847 103.687 46.152C103.873 46.0396 104.031 45.8869 104.15 45.7052L104.554 46.0365C104.362 46.2927 104.11 46.4988 103.821 46.6376C103.551 46.7597 103.258 46.8217 102.962 46.8191C102.7 46.8215 102.44 46.772 102.198 46.6737C101.97 46.5812 101.763 46.4426 101.592 46.2666C101.42 46.0884 101.284 45.879 101.192 45.6497C101.092 45.4036 101.042 45.1403 101.045 44.875C101.042 44.6101 101.091 44.3471 101.187 44.1003C101.278 43.8708 101.412 43.6612 101.584 43.4834C101.757 43.306 101.964 43.1655 102.192 43.0703C102.421 42.9752 102.667 42.9274 102.915 42.9299C103.174 42.9257 103.43 42.9768 103.667 43.0798C103.879 43.1729 104.07 43.3088 104.226 43.479C104.379 43.649 104.497 43.848 104.571 44.0642C104.651 44.294 104.691 44.5357 104.689 44.7789V45.016L101.6 45.0142ZM104.12 44.5877C104.126 44.4309 104.102 44.2744 104.047 44.1272C103.993 43.98 103.91 43.845 103.803 43.7302C103.686 43.6177 103.547 43.5305 103.395 43.4741C103.243 43.4176 103.081 43.3932 102.919 43.4023C102.751 43.4023 102.584 43.4362 102.428 43.5019C102.275 43.5643 102.134 43.6538 102.012 43.7663C101.895 43.8743 101.798 44.0027 101.727 44.1453C101.657 44.2817 101.62 44.4326 101.619 44.5859L104.12 44.5877Z" fill="black"/>
<path id="Vector_24" d="M107.78 40.7461H107.257V46.7231H107.78V40.7461Z" fill="black"/>
<path id="Vector_25" d="M111.171 40.7461H110.648V46.7231H111.171V40.7461Z" fill="black"/>
<path id="Vector_26" d="M118.42 41.6007C118.421 41.6521 118.411 41.703 118.391 41.7501C118.37 41.7971 118.34 41.8391 118.301 41.8731C118.231 41.9417 118.137 41.9803 118.04 41.9803C117.942 41.9803 117.848 41.9417 117.778 41.8731C117.741 41.8382 117.711 41.796 117.69 41.749C117.67 41.7021 117.659 41.6515 117.659 41.6003C117.659 41.5491 117.67 41.4985 117.69 41.4516C117.711 41.4046 117.741 41.3624 117.778 41.3275C117.848 41.2591 117.942 41.2207 118.04 41.2207C118.137 41.2207 118.231 41.2591 118.301 41.3275C118.34 41.3616 118.37 41.4038 118.391 41.451C118.412 41.4982 118.422 41.5493 118.42 41.6007ZM118.301 46.7238H117.778V43.0223H118.301V46.7238Z" fill="black"/>
<path id="Vector_27" d="M122.968 43.4981H121.899V45.6802C121.895 45.7935 121.909 45.9066 121.938 46.016C121.958 46.0913 121.996 46.1606 122.049 46.2178C122.096 46.2652 122.155 46.2992 122.219 46.3165C122.29 46.336 122.363 46.3455 122.437 46.3447C122.53 46.3443 122.624 46.3313 122.714 46.3059C122.806 46.2813 122.895 46.2467 122.979 46.2028L123.002 46.6849C122.779 46.7802 122.538 46.8259 122.295 46.8189C122.19 46.8184 122.084 46.8054 121.982 46.7801C121.873 46.7532 121.771 46.7019 121.685 46.6303C121.589 46.5477 121.514 46.4447 121.463 46.3289C121.399 46.1709 121.369 46.0012 121.375 45.8309V43.4981H120.589V43.0239H121.374V41.9805H121.897V43.0239H122.967L122.968 43.4981Z" fill="black"/>
</g>
</svg>
